<?xml version="1.0" standalone="no"?>
<!DOCTYPE svg PUBLIC "-//W3C//DTD SVG 20010904//EN"
 "http://www.w3.org/TR/2001/REC-SVG-20010904/DTD/svg10.dtd">
<svg version="1.0" xmlns="http://www.w3.org/2000/svg"
 width="512.000000pt" height="512.000000pt" viewBox="0 0 512.000000 512.000000"
 preserveAspectRatio="xMidYMid meet">

<g transform="translate(0.000000,512.000000) scale(0.100000,-0.100000)"
fill="#000000" stroke="none">
<path d="M2315 5109 c-800 -83 -1501 -518 -1927 -1196 -487 -774 -516 -1777
-75 -2578 200 -364 487 -676 841 -913 238 -159 600 -311 876 -366 214 -43 295
-51 530 -51 236 0 333 10 532 51 879 183 1616 843 1897 1699 93 282 126 493
126 805 0 301 -32 513 -116 775 -124 390 -330 728 -622 1024 -399 404 -893
653 -1462 737 -123 18 -478 26 -600 13z m605 -1044 c291 -64 531 -195 735
-399 62 -62 138 -151 172 -201 300 -444 342 -984 113 -1460 -233 -484 -701
-793 -1245 -822 -219 -12 -441 30 -653 124 l-103 45 -382 -95 c-210 -53 -383
-94 -385 -92 -2 1 40 170 93 375 l97 373 -41 86 c-99 210 -144 407 -144 636 0
243 41 424 148 642 209 426 594 713 1075 799 103 18 418 12 520 -11z"/>
<path d="M2434 3825 c-174 -31 -352 -104 -498 -205 -42 -29 -120 -98 -173
-154 -151 -158 -244 -323 -300 -533 -24 -90 -27 -114 -27 -293 -1 -173 2 -205
23 -284 30 -114 77 -231 131 -324 l42 -73 -56 -221 c-32 -121 -55 -222 -53
-224 2 -2 107 20 233 49 l229 54 80 -43 c100 -53 228 -98 342 -120 117 -23
329 -23 446 0 433 84 781 391 921 811 39 115 56 231 56 370 0 338 -123 630
-363 862 -168 162 -325 250 -556 310 -122 31 -352 40 -477 18z m-157 -600 c55
-72 143 -234 143 -262 0 -8 -34 -50 -75 -92 -53 -55 -75 -85 -75 -103 0 -54
62 -151 160 -248 137 -137 276 -224 392 -244 35 -6 38 -5 84 56 73 97 95 118
124 118 54 0 258 -81 317 -126 30 -23 33 -30 33 -79 0 -122 -74 -233 -184
-274 -75 -28 -218 -29 -331 -2 -338 82 -716 392 -875 716 -66 135 -83 206 -78
326 3 86 7 102 34 145 47 78 169 146 249 141 24 -2 40 -15 82 -72z"/>
</g>
</svg>
